<?xml version="1.0" encoding="UTF-8"?>
<svg id="Layer_2" data-name="Layer 2" xmlns="http://www.w3.org/2000/svg" viewBox="0 0 224.42 81.87">
  <defs>
    <style>
      .cls-1 {
        fill: #fff;
      }

      .cls-2 {
        fill: #019547;
      }
    </style>
  </defs>
  <g id="Layer_1-2" data-name="Layer 1">
    <g>
      <path class="cls-1" d="m86.75,2.3l-18.77,51.56c-5.91,16.23-23.88,28.01-42.55,28.01C8.35,81.87-1.1,72.86.1,60.23h14.85c1.46,5.3,6.81,8.7,14.76,8.7,10.61,0,20.13-6.05,23.41-15.07l2.51-6.9c-7.26,5.09-16.09,8.06-24.9,8.06-17.61,0-26.74-11.35-21.07-26.95C15.47,12.17,32.8.71,50.52.71c9.02,0,15.68,2.97,19.16,8.28l17.07-6.68Zm-48.07,39.68c11.25,0,20.86-5.73,23.88-14,3.05-8.38-2.46-14.22-13.6-14.22s-21.33,5.83-24.38,14.22,2.97,14,14.11,14Z"/>
      <path class="cls-1" d="m105.06,56.94c-15.91,0-24.19-7-21.34-18.04h14.85c-.85,4.67,2.81,7.43,10.35,7.43,6.05,0,11.57-2.65,12.81-6.05,4.25-11.67-36.63-1.38-28.87-22.7,3.4-9.34,15.69-16.87,31.18-16.87s22.85,6.9,19.68,17.93h-14.85c.91-4.24-1.83-7.21-8.83-7.21-5.83,0-11.01,2.55-12.28,6.05-4.13,11.35,37.28-.11,28.94,22.81-3.48,9.55-16.14,16.66-31.63,16.66Z"/>
      <polygon class="cls-2" points="224.42 3.11 176.43 32.53 224.42 61.96 211.64 32.53 224.42 3.11"/>
      <path class="cls-1" d="m157.87,32.37L205.62,3.1C201.85,1.11,197.17-.02,191.76,0c-18.15.05-37.55,12.81-43.32,28.51-5.77,15.69,4.27,28.37,22.42,28.32,6.55-.02,13.26-1.7,19.44-4.57l-32.44-19.89Z"/>
    </g>
  </g>
</svg>